# AST/ASF file generated using VICON BodyLanguage
# -----------------------------------------------
:version 1.10
:name VICON
:units
  mass 1.0
  length 0.45
  angle deg
:documentation
   .ast/.asf automatically generated from VICON data using
   VICON BodyBuilder and BodyLanguage model FoxedUp or BRILLIANT.MOD
:root
   order TX TY TZ RX RY RZ
   axis XYZ
   position 0 0 0  
   orientation 0 0 0 
:bonedata
  begin
     id 1 
     name lhipjoint
     direction 0.702568 -0.596508 0.388042 
     length 2.56661 
     axis 0 0 0  XYZ
  end
  begin
     id 2 
     name lfemur
     direction 0.34202 -0.939693 0  
     length 6.58374  
     axis 0 0 20  XYZ
    dof rx ry rz
    limits (-160.0 20.0)
           (-70.0 70.0)
           (-60.0 70.0)
  end
  begin
     id 3 
     name ltibia
     direction 0.34202 -0.939693 0   
     length 6.62538   
     axis 0 0 20   XYZ
    dof rx
    limits (-10.0 170.0)
  end
  begin
     id 4 
     name lfoot
     direction 0.10455 -0.287249 0.952133   
     length 2.26699   
     axis -90 7.62852e-016 20   XYZ
    dof rx rz
    limits (-45.0 90.0)
           (-70.0 20.0)
  end
  begin
     id 5 
     name ltoes
     direction 1.53572e-011 -4.22322e-011 1   
     length 1.12949   
     axis -90 7.62852e-016 20   XYZ
    dof rx
    limits (-90.0 20.0)
  end
  begin
     id 6 
     name rhipjoint
     direction -0.728055 -0.574632 0.373811   
     length 2.66432  
     axis 0 0 0  XYZ 
  end
  begin
     id 7 
     name rfemur
     direction -0.34202 -0.939693 0   
     length 6.66732   
     axis 0 0 -20   XYZ
    dof rx ry rz
    limits (-160.0 20.0)
           (-70.0 70.0)
           (-70.0 60.0)
  end
  begin
     id 8 
     name rtibia
     direction -0.34202 -0.939693 0   
     length 6.59288   
     axis 0 0 -20   XYZ
    dof rx
    limits (-10.0 170.0)
 end
 begin
     id 9 
     name rfoot
     direction -0.119193 -0.327479 0.93731   
     length 2.38061  
     axis -90 -7.62852e-016 -20   XYZ
    dof rx rz
    limits (-45.0 90.0)
           (-20.0 70.0)
  end
  begin
     id 10 
     name rtoes
     direction -1.53547e-011 -4.21827e-011 1   
     length 1.17899   
     axis -90 -7.62852e-016 -20   XYZ
    dof rx
    limits (-90.0 20.0)
  end
  begin
     id 11 
     name lowerback
     direction -0.000416114 0.999912 -0.0132284   
     length 2.12109   
     axis 0 0 0   XYZ
    dof rx ry rz
    limits (-20.0 45.0)
           (-30.0 30.0)
           (-30.0 30.0)
  end
  begin
     id 12 
     name upperback
     direction -0.00136371 0.99809 0.0617608   
     length 2.10067   
     axis 0 0 0   XYZ
    dof rx ry rz
    limits (-20.0 45.0)
           (-30.0 30.0)
           (-30.0 30.0)
  end
  begin
     id 13 
     name thorax
     direction -3.43026e-005 0.997776 0.0666515   
     length 2.10618   
     axis 0 0 0   XYZ
    dof rx ry rz
    limits (-20.0 45.0)
           (-30.0 30.0)
           (-30.0 30.0)
  end
  begin
     id 14 
     name lowerneck
     direction 0.0398646 0.998418 0.0396592   
     length 1.83817   
     axis 0 0 0   XYZ
    dof rx ry rz
    limits (-20.0 45.0)
           (-30.0 30.0)
           (-30.0 30.0)
  end
  begin
     id 15 
     name upperneck
     direction -0.0367268 0.961527 -0.272244   
     length 1.81975   
     axis 0 0 0   XYZ
    dof rx ry rz
    limits (-20.0 45.0)
           (-30.0 30.0)
           (-30.0 30.0)
  end
  begin
     id 16
     name head
     direction -0.0182665 0.99536 -0.0944669  
     length 1.86026  
     axis 0 0 0   XYZ
    dof rx ry rz
    limits (-20.0 45.0)
           (-30.0 30.0)
           (-30.0 30.0)
  end
  begin
     id 17 
     name lclavicle
     direction 0.924239 0.361045 0.124212  
     length 3.26878  
     axis 0 0 0   XYZ
    dof ry rz
    limits (-20.0 10.0)
           (0.0 20.0)
  end
  begin
     id 18 
     name lhumerus
     direction 1 -4.48968e-011 -2.56583e-027   
     length 4.58538   
     axis 180 -30 -90   XYZ
    dof rx ry rz
    limits (-60.0 90.0)
           (-90.0 90.0)
           (-90.0 90.0)
  end
  begin
     id 19
     name lradius
     direction 1 -4.4898e-011 -5.50375e-027   
     length 2.68935   
     axis 180 -30 -90   XYZ
    dof rx
    limits (-10.0 170.0)
  end
  begin
     id 20
     name lwrist
     direction 1 -4.48939e-011 -1.48955e-026   
     length 1.34468   
     axis 9.0955e-015 90 90   XYZ
    dof ry
    limits (-180.0 0.0)
 end
  begin
     id 21 
     name lhand
     direction 1 -4.48936e-011 -2.97907e-026   
     length 0.585058   
     axis 1.90115e-014 90 90   XYZ
    dof rx rz
    limits (-90.0 90.0)
           (-45.0 45.0)
  end
  begin
     id 22 
     name lfingers
     direction 1 -4.49082e-011 -5.96235e-026   
     length 0.471689   
     axis 3.80223e-014 90 90   XYZ
    dof rx
    limits (0.0 90.0)
  end
  begin
     id 23
     name lthumb
     direction 0.707107 -6.3489e-011 0.707107   
     length 0.677253   
     axis -90 45 -3.84942e-014   XYZ
    dof rx rz
    limits (-45.0 45.0)
           (-45.0 45.0)
  end
  begin
     id 24 
     name rclavicle
     direction -0.923098 0.371783 0.0983239   
     length 3.19656  
     axis 0 0 0   XYZ 
    dof ry rz
    limits (-10.0 20.0)
           (-20.0 0.0)
  end
  begin
     id 25 
     name rhumerus
     direction -1 -4.48976e-011 -2.5492e-027  
     length 4.4745   
     axis 180 30 90   XYZ
    dof rx ry rz
    limits (-90.0 60.0)
           (-90.0 90.0)
           (-90.0 90.0)
  end
  begin
     id 26 
     name rradius
     direction -1 -4.48941e-011 -4.36555e-027   
     length 2.93896   
     axis 180 30 90   XYZ
    dof rx
    limits (-10.0 170.0)
  end
  begin
     id 27 
     name rwrist
     direction -1 -4.49044e-011 -1.49032e-026   
     length 1.46948   
     axis 9.0955e-015 -90 -90   XYZ
    dof ry
    limits (-180.0 0.0)
  end
  begin
     id 28
     name rhand
     direction -1 -4.48826e-011 -2.97749e-026   
     length 0.405092   
     axis 1.90115e-014 -90 -90   XYZ
    dof rx rz
    limits (-90.0 90.0)
           (-45.0 45.0)
  end
  begin
     id 29
     name rfingers
     direction -1 -4.49209e-011 -5.96602e-026   
     length 0.326596   
     axis 3.80223e-014 -90 -90   XYZ
    dof rx
    limits (0.0 90.0)
  end
  begin
     id 30
     name rthumb
     direction -0.707107 -6.34776e-011 0.707107   
     length 0.468928   
     axis -90 -45 3.84942e-014   XYZ
    dof rx rz
    limits (-45.0 45.0)
           (-45.0 45.0)
  end
:hierarchy
  begin
    root lhipjoint rhipjoint lowerback
    lhipjoint lfemur
    lfemur ltibia
    ltibia lfoot
    lfoot ltoes
    rhipjoint rfemur
    rfemur rtibia
    rtibia rfoot
    rfoot rtoes
    lowerback upperback
    upperback thorax
    thorax lowerneck lclavicle rclavicle
    lowerneck upperneck
    upperneck head
    lclavicle lhumerus
    lhumerus lradius
    lradius lwrist
    lwrist lhand lthumb
    lhand lfingers
    rclavicle rhumerus
    rhumerus rradius
    rradius rwrist
    rwrist rhand rthumb
    rhand rfingers
  end

#!OML:ASF H:\Punching\Project 1\Capture day 1\Session 1\female.ASF
:FULLY-SPECIFIED
:DEGREES
142
root 0.634688 15.6837 3.02576 14.6785 -23.478 1.65227
lowerback 2.02995 -0.324782 -1.95294
upperback -6.0905 -0.779136 -2.89034
thorax -7.5207 -0.384559 -1.86841
lowerneck -3.16357 9.98572 15.8813
upperneck 13.8494 14.6358 -15.9039
head 7.09764 6.98533 -6.51566
rclavicle -8.19987e-015 -7.15625e-015
rhumerus 17.3361 26.593 -83.5176
rradius 130.752
rwrist -59.8206
rhand -20.5118 -13.7596
rfingers 7.12502
rthumb 5.84572 -43.6589
lclavicle -8.19987e-015 -7.15625e-015
lhumerus 20.5403 -14.0235 67.5618
lradius 140.472
lwrist 5.6792
lhand -29.0558 4.07337
lfingers 7.12502
lthumb -2.40558 34.0396
rfemur -9.20983 5.03462 6.75378
rtibia 20.0509
rfoot -16.4079 -24.9323
rtoes -11.8064
lfemur -34.0486 8.08312 -13.2281
ltibia 30.02
lfoot -4.17228 12.9169
ltoes -1.51063
143
root 0.600887 15.6627 2.98141 14.7333 -24.1025 1.49861
lowerback 2.05211 -0.323237 -1.90516
upperback -6.12504 -0.773211 -2.82753
thorax -7.57 -0.382585 -1.82992
lowerneck -2.89789 10.1805 16.0535
upperneck 13.587 14.9293 -16.0947
head 7.04763 7.13952 -6.57952
rclavicle -6.35614e-014 7.15625e-015
rhumerus 17.3244 27.0791 -83.652
rradius 131.595
rwrist -61.3006
rhand -20.6111 -13.7347
rfingers 7.12502
rthumb 5.74979 -43.6367
lclavicle -6.35614e-014 7.15625e-015
lhumerus 21.1849 -14.942 67.2426
lradius 141.135
lwrist 5.12153
lhand -29.2275 3.71731
lfingers 7.12502
lthumb -2.57145 33.6816
rfemur -9.47746 4.81071 6.98438
rtibia 19.9022
rfoot -16.8534 -24.4214
rtoes -11.4675
lfemur -34.4749 8.83198 -12.7118
ltibia 31.26
lfoot -4.44229 11.7593
ltoes -2.9025
144
root 0.57216 15.6427 2.94073 14.7556 -24.8294 1.38507
lowerback 2.09282 -0.303813 -1.90076
upperback -6.16633 -0.747933 -2.77952
thorax -7.63699 -0.369026 -1.78441
lowerneck -2.56536 10.3705 16.2654
upperneck 13.2879 15.2259 -16.3349
head 6.98337 7.29863 -6.66936
rclavicle 5.60573e-014 7.95139e-016
rhumerus 17.256 27.6142 -83.813
rradius 132.302
rwrist -62.3535
rhand -20.6305 -13.6945
rfingers 7.12502
rthumb 5.73109 -43.597
lclavicle 5.60573e-014 7.95139e-016
lhumerus 21.7732 -15.8144 66.9156
lradius 141.721
lwrist 4.5366
lhand -29.3134 3.4755
lfingers 7.12502
lthumb -2.65437 33.4387
rfemur -9.78801 4.58272 7.13738
rtibia 19.8078
rfoot -17.2176 -23.8552
rtoes -11.0706
lfemur -34.7721 9.58061 -12.2632
ltibia 32.4198
lfoot -4.7716 10.8969
ltoes -3.8421
145
root 0.548474 15.6239 2.90365 14.7389 -25.6539 1.31769
lowerback 2.15124 -0.267408 -1.9391
upperback -6.21129 -0.704725 -2.75101
thorax -7.71811 -0.34476 -1.73713
lowerneck -2.17431 10.5574 16.5201
upperneck 12.9602 15.5276 -16.6208
head 6.9098 7.46366 -6.78384
rclavicle 4.77083e-014 2.94201e-014
rhumerus 17.1397 28.2034 -83.9986
rradius 132.878
rwrist -62.9869
rhand -20.5772 -13.6159
rfingers 7.12502
rthumb 5.78256 -43.517
lclavicle 4.77083e-014 2.94201e-014
lhumerus 22.3093 -16.6197 66.5868
lradius 142.23
lwrist 3.99447
lhand -29.3631 3.29651
lfingers 7.12502
lthumb -2.70242 33.2591
rfemur -10.1427 4.3788 7.20683
rtibia 19.7853
rfoot -17.517 -23.2467
rtoes -10.6678
lfemur -34.9405 10.3393 -11.9021
ltibia 33.5076
lfoot -5.16337 10.4477
ltoes -4.2078
146
root 0.529659 15.6062 2.87019 14.6769 -26.5674 1.29727
lowerback 2.23484 -0.222106 -2.02331
upperback -6.25502 -0.654617 -2.73783
thorax -7.81266 -0.31481 -1.68102
lowerneck -1.71197 10.739 16.8179
upperneck 12.5753 15.832 -16.9651
head 6.81701 7.63421 -6.92841
rclavicle -7.95139e-016 7.15625e-015
rhumerus 16.9936 28.85 -84.2121
rradius 133.331
rwrist -63.2707
rhand -20.4675 -13.4893
rfingers 7.12502
rthumb 5.88844 -43.3874
lclavicle -7.95139e-016 7.15625e-015
lhumerus 22.7922 -17.322 66.2516
lradius 142.658
lwrist 3.54176
lhand -29.4535 3.15318
lfingers 7.12502
lthumb -2.78967 33.1147
rfemur -10.5431 4.22666 7.18971
rtibia 19.8605
rfoot -17.7517 -22.6008
rtoes -10.3905
lfemur -34.9813 11.1258 -11.6439
ltibia 34.5317
lfoot -5.60973 10.5039
ltoes -4.10943
147
root 0.515458 15.5901 2.84036 14.5646 -27.5576 1.32444
lowerback 2.34354 -0.169946 -2.15234
upperback -6.28785 -0.600122 -2.74056
thorax -7.91037 -0.280425 -1.61705
lowerneck -1.2365 10.9289 17.1358
upperneck 12.1659 16.1508 -17.3351
head 6.72368 7.81332 -7.08378
rclavicle -5.36719e-014 -3.97569e-015
rhumerus 16.8264 29.5184 -84.4512
rradius 133.686
rwrist -63.3138
rhand -20.3124 -13.3628
rfingers 7.12502
rthumb 6.0382 -43.2568
lclavicle -5.36719e-014 -3.97569e-015
lhumerus 23.2307 -17.9279 65.9039
lradius 143.002
lwrist 3.16152
lhand -29.6596 3.0317
lfingers 7.12502
lthumb -2.98874 32.9905
rfemur -10.9983 4.11978 7.08371
rtibia 20.0658
rfoot -17.9394 -21.8896
rtoes -10.3128
lfemur -34.8973 11.9478 -11.4968
ltibia 35.4942
lfoot -6.08525 11.1031
ltoes -3.68736
148
root 0.505501 15.5753 2.81411 14.3995 -28.609 1.38489
lowerback 2.48394 -0.113649 -2.31632
upperback -6.30459 -0.543942 -2.75093
thorax -8.00958 -0.243153 -1.54184
lowerneck -0.775598 11.1331 17.4606
upperneck 11.748 16.4896 -17.7178
head 6.63889 8.00214 -7.24107
rclavicle -6.00827e-014 -2.38542e-015
rhumerus 16.641 30.1774 -84.7132
rradius 133.966
rwrist -63.2427
rhand -20.0773 -13.197
rfingers 7.12502
rthumb 6.2652 -43.0844
lclavicle -6.00827e-014 -2.38542e-015
lhumerus 23.6226 -18.4382 65.5422
lradius 143.273
lwrist 2.83961
lhand -30.004 2.99463
lfingers 7.12502
lthumb -3.32135 32.9485
rfemur -11.4845 4.03775 6.90468
rtibia 20.373
rfoot -18.0688 -21.0776
rtoes -10.4649
lfemur -34.6757 12.809 -11.444
ltibia 36.3628
lfoot -6.52361 12.2036
ltoes -3.07703
149
root 0.499593 15.5616 2.79132 14.1826 -29.6991 1.47482
lowerback 2.65155 -0.0552673 -2.50512
upperback -6.29666 -0.48794 -2.77062
thorax -8.09852 -0.204615 -1.46262
lowerneck -0.341047 11.3456 17.7967
upperneck 11.3107 16.8372 -18.1187
head 6.56038 8.19486 -7.40347
rclavicle -5.11871e-015 2.3059e-014
rhumerus 16.4506 30.7957 -84.9969
rradius 134.188
rwrist -63.134
rhand -19.7776 -13.019
rfingers 7.12502
rthumb 6.55451 -42.8976
lclavicle -5.11871e-015 2.3059e-014
lhumerus 23.9718 -18.8745 65.1604
lradius 143.487
lwrist 2.52763
lhand -30.48 3.08695
lfingers 7.12502
lthumb -3.78097 33.0332
rfemur -12.0218 3.94814 6.6631
rtibia 20.8302
rfoot -18.1877 -20.14
rtoes -10.8145
lfemur -34.342 13.6822 -11.4667
ltibia 37.1486
lfoot -6.89233 13.6784
ltoes -2.32269
150
root 0.497376 15.5545 2.773 13.9231 -30.7991 1.5765
lowerback 2.84656 0.00243959 -2.69389
upperback -6.27475 -0.434359 -2.79306
thorax -8.18895 -0.167216 -1.38634
lowerneck 0.0683689 11.5653 18.1308
upperneck 10.8859 17.1933 -18.513
head 6.49455 8.3914 -7.56054
rclavicle -5.72003e-014 3.18055e-014
rhumerus 16.2174 31.3601 -85.3132
rradius 134.371
rwrist -63.0412
rhand -19.3902 -12.8596
rfingers 7.12502
rthumb 6.92847 -42.7262
lclavicle -5.72003e-014 3.18055e-014
lhumerus 24.2429 -19.2508 64.7875
lradius 143.645
lwrist 2.19053
lhand -31.0487 3.2715
lfingers 7.12502
lthumb -4.33017 33.2072
rfemur -12.584 3.80632 6.39287
rtibia 21.4014
rfoot -18.3085 -19.0714
rtoes -11.2888
lfemur -33.8891 14.5365 -11.5418
ltibia 37.8175
lfoot -7.14157 15.3167
ltoes -1.50078
151
root 0.499485 15.5436 2.75811 13.6528 -31.8749 1.65733
lowerback 3.05364 0.0609794 -2.83785
upperback -6.24406 -0.377215 -2.81482
thorax -8.27744 -0.13075 -1.33507
lowerneck 0.445315 11.7818 18.461
upperneck 10.4933 17.5433 -18.8896
head 6.44443 8.58419 -7.70971
rclavicle 7.42461e-014 -5.88403e-014
rhumerus 15.9327 31.8491 -85.6563
rradius 134.518
rwrist -62.9977
rhand -18.9378 -12.7041
rfingers 7.12502
rthumb 7.3652 -42.5559
lclavicle 7.42461e-014 -5.88403e-014
lhumerus 24.4373 -19.5105 64.4891
lradius 143.743
lwrist 1.98485
lhand -31.5088 3.28574
lfingers 7.12502
lthumb -4.77444 33.2119
rfemur -13.164 3.60159 6.13134
rtibia 22.0494
rfoot -18.4349 -17.9168
rtoes -11.8075
lfemur -33.3872 15.3414 -11.6183
ltibia 38.3787
lfoot -7.20699 16.8794
ltoes -0.541627
152
root 0.505585 15.5336 2.74843 13.3988 -32.8845 1.69906
lowerback 3.25732 0.1089 -2.91071
upperback -6.21936 -0.328874 -2.82579
thorax -8.37063 -0.102608 -1.31171
lowerneck 0.805486 11.9898 18.7818
upperneck 10.153 17.8834 -19.2358
head 6.41061 8.77205 -7.84746
rclavicle -4.91992e-014 -3.26007e-014
rhumerus 15.5743 32.2778 -86.0223
rradius 134.636
rwrist -63.0073
rhand -18.4786 -12.5998
rfingers 7.12502
rthumb 7.80841 -42.4356
lclavicle -4.91992e-014 -3.26007e-014
lhumerus 24.5237 -19.684 64.2811
lradius 143.804
lwrist 1.87016
lhand -31.8639 3.2479
lfingers 7.12502
lthumb -5.11733 33.1661
rfemur -13.7151 3.31986 5.91269
rtibia 22.6974
rfoot -18.5628 -16.7367
rtoes -12.2984
lfemur -32.8494 16.0452 -11.6773
ltibia 38.8019
lfoot -7.15994 18.1924
ltoes 0.12371
153
root 0.51512 15.5234 2.7445 13.1998 -33.7917 1.67004
lowerback 3.42611 0.141553 -2.87506
upperback -6.20517 -0.290449 -2.82141
thorax -8.45454 -0.0856876 -1.33197
lowerneck 1.13324 12.1868 19.0837
upperneck 9.897 18.2081 -19.5214
head 6.40001 8.95137 -7.96182
rclavicle -3.45388e-014 1.74931e-014
rhumerus 15.1454 32.6388 -86.3944
rradius 134.727
rwrist -63.0861
rhand -18.0493 -12.5409
rfingers 7.12502
rthumb 8.22275 -42.3609
lclavicle -3.45388e-014 1.74931e-014
lhumerus 24.5166 -19.8051 64.16
lradius 143.834
lwrist 1.81763
lhand -32.121 3.23177
lfingers 7.12502
lthumb -5.36555 33.1438
rfemur -14.2263 2.98414 5.77527
rtibia 23.3264
rfoot -18.7091 -15.6118
rtoes -12.7058
lfemur -32.324 16.6222 -11.6922
ltibia 39.0994
lfoot -7.12687 19.1888
ltoes 0.442845
154
root 0.527195 15.5123 2.74673 13.0839 -34.5664 1.543
lowerback 3.53997 0.146297 -2.71514
upperback -6.19902 -0.275272 -2.79248
thorax -8.51441 -0.0873337 -1.39316
lowerneck 1.42253 12.3763 19.3857
upperneck 9.72651 18.5225 -19.7525
head 6.41695 9.1245 -8.05636
rclavicle 4.40308e-014 1.51076e-014
rhumerus 14.6824 32.9511 -86.7544
rradius 134.793
rwrist -63.233
rhand -17.7112 -12.5276
rfingers 7.12502
rthumb 8.54905 -42.3345
lclavicle 4.40308e-014 1.51076e-014
lhumerus 24.4387 -19.8744 64.1046
lradius 143.837
lwrist 1.84005
lhand -32.3108 3.2966
lfingers 7.12502
lthumb -5.54877 33.2039
rfemur -14.654 2.61908 5.75104
rtibia 23.8574
rfoot -18.8179 -14.6263
rtoes -13.1447
lfemur -31.8289 17.0575 -11.6405
ltibia 39.2443
lfoot -7.25342 19.9256
ltoes 0.489696
